<svg id="my-svg" width="100%" xmlns="http://www.w3.org/2000/svg" xmlns:xlink="http://www.w3.org/1999/xlink" class="flowchart" style="max-width: 897.671px; background-color: white;" viewBox="0 0 897.67138671875 469.9435729980469" role="graphics-document document" aria-roledescription="flowchart-v2"><style>#my-svg{font-family:"trebuchet ms",verdana,arial,sans-serif;font-size:16px;fill:#333;}@keyframes edge-animation-frame{from{stroke-dashoffset:0;}}@keyframes dash{to{stroke-dashoffset:0;}}#my-svg .edge-animation-slow{stroke-dasharray:9,5!important;stroke-dashoffset:900;animation:dash 50s linear infinite;stroke-linecap:round;}#my-svg .edge-animation-fast{stroke-dasharray:9,5!important;stroke-dashoffset:900;animation:dash 20s linear infinite;stroke-linecap:round;}#my-svg .error-icon{fill:#552222;}#my-svg .error-text{fill:#552222;stroke:#552222;}#my-svg .edge-thickness-normal{stroke-width:1px;}#my-svg .edge-thickness-thick{stroke-width:3.5px;}#my-svg .edge-pattern-solid{stroke-dasharray:0;}#my-svg .edge-thickness-invisible{stroke-width:0;fill:none;}#my-svg .edge-pattern-dashed{stroke-dasharray:3;}#my-svg .edge-pattern-dotted{stroke-dasharray:2;}#my-svg .marker{fill:#333333;stroke:#333333;}#my-svg .marker.cross{stroke:#333333;}#my-svg svg{font-family:"trebuchet ms",verdana,arial,sans-serif;font-size:16px;}#my-svg p{margin:0;}#my-svg .label{font-family:"trebuchet ms",verdana,arial,sans-serif;color:#333;}#my-svg .cluster-label text{fill:#333;}#my-svg .cluster-label span{color:#333;}#my-svg .cluster-label span p{background-color:transparent;}#my-svg .label text,#my-svg span{fill:#333;color:#333;}#my-svg .node rect,#my-svg .node circle,#my-svg .node ellipse,#my-svg .node polygon,#my-svg .node path{fill:#ECECFF;stroke:#9370DB;stroke-width:1px;}#my-svg .rough-node .label text,#my-svg .node .label text,#my-svg .image-shape .label,#my-svg .icon-shape .label{text-anchor:middle;}#my-svg .node .katex path{fill:#000;stroke:#000;stroke-width:1px;}#my-svg .rough-node .label,#my-svg .node .label,#my-svg .image-shape .label,#my-svg .icon-shape .label{text-align:center;}#my-svg .node.clickable{cursor:pointer;}#my-svg .root .anchor path{fill:#333333!important;stroke-width:0;stroke:#333333;}#my-svg .arrowheadPath{fill:#333333;}#my-svg .edgePath .path{stroke:#333333;stroke-width:1px;}#my-svg .flowchart-link{stroke:#333333;fill:none;}#my-svg .edgeLabel{background-color:rgba(232,232,232, 0.8);text-align:center;}#my-svg .edgeLabel p{background-color:rgba(232,232,232, 0.8);}#my-svg .edgeLabel rect{opacity:0.5;background-color:rgba(232,232,232, 0.8);fill:rgba(232,232,232, 0.8);}#my-svg .labelBkg{background-color:rgba(232, 232, 232, 0.5);}#my-svg .cluster rect{fill:#ffffde;stroke:#aaaa33;stroke-width:1px;}#my-svg .cluster text{fill:#333;}#my-svg .cluster span{color:#333;}#my-svg div.mermaidTooltip{position:absolute;text-align:center;max-width:200px;padding:2px;font-family:"trebuchet ms",verdana,arial,sans-serif;font-size:12px;background:hsl(80, 100%, 96.2745098039%);border:1px solid #aaaa33;border-radius:2px;pointer-events:none;z-index:100;}#my-svg .flowchartTitleText{text-anchor:middle;font-size:18px;fill:#333;}#my-svg rect.text{fill:none;stroke-width:0;}#my-svg .icon-shape,#my-svg .image-shape{background-color:rgba(232,232,232, 0.8);text-align:center;}#my-svg .icon-shape p,#my-svg .image-shape p{background-color:rgba(232,232,232, 0.8);padding:2px;}#my-svg .icon-shape .label rect,#my-svg .image-shape .label rect{opacity:0.5;background-color:rgba(232,232,232, 0.8);fill:rgba(232,232,232, 0.8);}#my-svg .label-icon{display:inline-block;height:1em;overflow:visible;vertical-align:-0.125em;}#my-svg .node .label-icon path{fill:currentColor;stroke:revert;stroke-width:revert;}#my-svg .node .neo-node{stroke:#9370DB;}#my-svg [data-look="neo"].node rect,#my-svg [data-look="neo"].cluster rect,#my-svg [data-look="neo"].node polygon{stroke:#9370DB;filter:drop-shadow(1px 2px 2px rgba(185, 185, 185, 1));}#my-svg [data-look="neo"].swimlane.cluster rect{filter:none;}#my-svg [data-look="neo"].node path{stroke:#9370DB;stroke-width:1px;}#my-svg [data-look="neo"].node .outer-path{filter:drop-shadow(1px 2px 2px rgba(185, 185, 185, 1));}#my-svg [data-look="neo"].node .neo-line path{stroke:#9370DB;filter:none;}#my-svg [data-look="neo"].node circle{stroke:#9370DB;filter:drop-shadow(1px 2px 2px rgba(185, 185, 185, 1));}#my-svg [data-look="neo"].node circle .state-start{fill:#000000;}#my-svg [data-look="neo"].icon-shape .icon{fill:#9370DB;filter:drop-shadow(1px 2px 2px rgba(185, 185, 185, 1));}#my-svg [data-look="neo"].icon-shape .icon-neo path{stroke:#9370DB;filter:drop-shadow(1px 2px 2px rgba(185, 185, 185, 1));}#my-svg :root{--mermaid-font-family:"trebuchet ms",verdana,arial,sans-serif;}#my-svg .prod&gt;*{fill:rgb(14, 47, 68)!important;stroke:rgb(14, 47, 68)!important;color:rgb(255, 255, 255)!important;}#my-svg .prod span{fill:rgb(14, 47, 68)!important;stroke:rgb(14, 47, 68)!important;color:rgb(255, 255, 255)!important;}#my-svg .prod tspan{fill:rgb(255, 255, 255)!important;}#my-svg .store&gt;*{fill:rgb(232, 240, 254)!important;stroke:rgb(93, 173, 226)!important;color:rgb(14, 47, 68)!important;}#my-svg .store span{fill:rgb(232, 240, 254)!important;stroke:rgb(93, 173, 226)!important;color:rgb(14, 47, 68)!important;}#my-svg .store tspan{fill:rgb(14, 47, 68)!important;}</style><g><marker id="my-svg_flowchart-v2-pointEnd" class="marker flowchart-v2" viewBox="0 0 10 10" refX="5" refY="5" markerUnits="userSpaceOnUse" markerWidth="8" markerHeight="8" orient="auto"><path d="M 0 0 L 10 5 L 0 10 z" class="arrowMarkerPath" style="stroke-width: 1; stroke-dasharray: 1, 0;"/></marker><marker id="my-svg_flowchart-v2-pointStart" class="marker flowchart-v2" viewBox="0 0 10 10" refX="4.5" refY="5" markerUnits="userSpaceOnUse" markerWidth="8" markerHeight="8" orient="auto"><path d="M 0 5 L 10 10 L 10 0 z" class="arrowMarkerPath" style="stroke-width: 1; stroke-dasharray: 1, 0;"/></marker><marker id="my-svg_flowchart-v2-pointEnd-margin" class="marker flowchart-v2" viewBox="0 0 11.5 14" refX="11.5" refY="7" markerUnits="userSpaceOnUse" markerWidth="10.5" markerHeight="14" orient="auto"><path d="M 0 0 L 11.5 7 L 0 14 z" class="arrowMarkerPath" style="stroke-width: 0; stroke-dasharray: 1, 0;"/></marker><marker id="my-svg_flowchart-v2-pointStart-margin" class="marker flowchart-v2" viewBox="0 0 11.5 14" refX="1" refY="7" markerUnits="userSpaceOnUse" markerWidth="11.5" markerHeight="14" orient="auto"><polygon points="0,7 11.5,14 11.5,0" class="arrowMarkerPath" style="stroke-width: 0; stroke-dasharray: 1, 0;"/></marker><marker id="my-svg_flowchart-v2-circleEnd" class="marker flowchart-v2" viewBox="0 0 10 10" refX="11" refY="5" markerUnits="userSpaceOnUse" markerWidth="11" markerHeight="11" orient="auto"><circle cx="5" cy="5" r="5" class="arrowMarkerPath" style="stroke-width: 1; stroke-dasharray: 1, 0;"/></marker><marker id="my-svg_flowchart-v2-circleStart" class="marker flowchart-v2" viewBox="0 0 10 10" refX="-1" refY="5" markerUnits="userSpaceOnUse" markerWidth="11" markerHeight="11" orient="auto"><circle cx="5" cy="5" r="5" class="arrowMarkerPath" style="stroke-width: 1; stroke-dasharray: 1, 0;"/></marker><marker id="my-svg_flowchart-v2-circleEnd-margin" class="marker flowchart-v2" viewBox="0 0 10 10" refY="5" refX="12.25" markerUnits="userSpaceOnUse" markerWidth="14" markerHeight="14" orient="auto"><circle cx="5" cy="5" r="5" class="arrowMarkerPath" style="stroke-width: 0; stroke-dasharray: 1, 0;"/></marker><marker id="my-svg_flowchart-v2-circleStart-margin" class="marker flowchart-v2" viewBox="0 0 10 10" refX="-2" refY="5" markerUnits="userSpaceOnUse" markerWidth="14" markerHeight="14" orient="auto"><circle cx="5" cy="5" r="5" class="arrowMarkerPath" style="stroke-width: 0; stroke-dasharray: 1, 0;"/></marker><marker id="my-svg_flowchart-v2-crossEnd" class="marker cross flowchart-v2" viewBox="0 0 11 11" refX="12" refY="5.2" markerUnits="userSpaceOnUse" markerWidth="11" markerHeight="11" orient="auto"><path d="M 1,1 l 9,9 M 10,1 l -9,9" class="arrowMarkerPath" style="stroke-width: 2; stroke-dasharray: 1, 0;"/></marker><marker id="my-svg_flowchart-v2-crossStart" class="marker cross flowchart-v2" viewBox="0 0 11 11" refX="-1" refY="5.2" markerUnits="userSpaceOnUse" markerWidth="11" markerHeight="11" orient="auto"><path d="M 1,1 l 9,9 M 10,1 l -9,9" class="arrowMarkerPath" style="stroke-width: 2; stroke-dasharray: 1, 0;"/></marker><marker id="my-svg_flowchart-v2-crossEnd-margin" class="marker cross flowchart-v2" viewBox="0 0 15 15" refX="17.7" refY="7.5" markerUnits="userSpaceOnUse" markerWidth="12" markerHeight="12" orient="auto"><path d="M 1,1 L 14,14 M 1,14 L 14,1" class="arrowMarkerPath" style="stroke-width: 2.5;"/></marker><marker id="my-svg_flowchart-v2-crossStart-margin" class="marker cross flowchart-v2" viewBox="0 0 15 15" refX="-3.5" refY="7.5" markerUnits="userSpaceOnUse" markerWidth="12" markerHeight="12" orient="auto"><path d="M 1,1 L 14,14 M 1,14 L 14,1" class="arrowMarkerPath" style="stroke-width: 2.5; stroke-dasharray: 1, 0;"/></marker><g class="root"><g class="clusters"/><g class="edgePaths"><path d="M181.355,234.972L195.548,234.972C209.74,234.972,238.126,234.972,265.845,234.972C293.563,234.972,320.615,234.972,334.141,234.972L347.667,234.972" id="my-svg-L_op_eks_0" class="edge-thickness-normal edge-pattern-solid edge-thickness-normal edge-pattern-solid flowchart-link" style=";" data-edge="true" data-et="edge" data-id="L_op_eks_0" data-points="W3sieCI6MTgxLjM1NDk2NTIwOTk2MDk0LCJ5IjoyMzQuOTcxNzg2NDk5MDIzNDR9LHsieCI6MjY2LjUxMTIxNTIwOTk2MDk0LCJ5IjoyMzQuOTcxNzg2NDk5MDIzNDR9LHsieCI6MzUxLjY2NzQ2NTIwOTk2MDk0LCJ5IjoyMzQuOTcxNzg2NDk5MDIzNDR9XQ==" data-look="classic" marker-end="url(#my-svg_flowchart-v2-pointEnd)"/></g><g class="edgeLabels"><g class="edgeLabel" transform="translate(266.51121520996094, 234.97178649902344)"><g class="label" data-id="L_op_eks_0" transform="translate(-60.15625, -12)"><foreignObject width="120.3125" height="24"><div xmlns="http://www.w3.org/1999/xhtml" class="labelBkg" style="display: table-cell; white-space: nowrap; line-height: 1.5; max-width: 200px; text-align: center;"><span class="edgeLabel"><p>bearer-token API</p></span></div></foreignObject></g></g></g><g class="nodes"><g class="root" transform="translate(343.66746520996094, 0)"><g class="clusters"><g class="cluster" id="my-svg-aws" data-look="classic"><rect style="" x="8" y="8" width="538.00390625" height="453.94358825683594"/><g class="cluster-label" transform="translate(25.744140625, 8)"><foreignObject width="502.515625" height="24"><div xmlns="http://www.w3.org/1999/xhtml" style="display: table-cell; white-space: nowrap; line-height: 1.5;"><span class="nodeLabel"><p>Your AWS account — no telemetry or diagnostic-data egress to Elevarq</p></span></div></foreignObject></g></g></g><g class="edgePaths"><path d="M215.54,171.5L204.7,183.75C193.86,196,172.18,220.5,161.34,244.333C150.5,268.167,150.5,291.333,150.5,302.917L150.5,314.5" id="my-svg-L_eks_rds_0" class="edge-thickness-normal edge-pattern-solid edge-thickness-normal edge-pattern-solid flowchart-link" style=";" data-edge="true" data-et="edge" data-id="L_eks_rds_0" data-points="W3sieCI6MjE1LjU0MDI2NDQyMzA3NjksInkiOjE3MS41fSx7IngiOjE1MC41LCJ5IjoyNDV9LHsieCI6MTUwLjUsInkiOjMxOC41fV0=" data-look="classic" marker-end="url(#my-svg_flowchart-v2-pointEnd)"/><path d="M327.038,171.5L337.878,183.75C348.718,196,370.398,220.5,381.238,246.662C392.078,272.824,392.078,300.648,392.078,314.56L392.078,328.472" id="my-svg-L_eks_snap_0" class="edge-thickness-normal edge-pattern-solid edge-thickness-normal edge-pattern-solid flowchart-link" style=";" data-edge="true" data-et="edge" data-id="L_eks_snap_0" data-points="W3sieCI6MzI3LjAzNzg2MDU3NjkyMzEsInkiOjE3MS41fSx7IngiOjM5Mi4wNzgxMjUsInkiOjI0NX0seyJ4IjozOTIuMDc4MTI1LCJ5IjozMzIuNDcxNzk0MTI4NDE3OTd9XQ==" data-look="classic" marker-end="url(#my-svg_flowchart-v2-pointEnd)"/></g><g class="edgeLabels"><g class="edgeLabel" transform="translate(150.5, 245)"><g class="label" data-id="L_eks_rds_0" transform="translate(-100, -36)"><foreignObject width="200" height="72"><div xmlns="http://www.w3.org/1999/xhtml" class="labelBkg" style="display: table; white-space: break-spaces; line-height: 1.5; max-width: 200px; text-align: center; width: 200px;"><span class="edgeLabel"><p>passwordless RDS IAM token<br />read-only · verify-full TLS · pg_monitor</p></span></div></foreignObject></g></g><g class="edgeLabel" transform="translate(392.078125, 245)"><g class="label" data-id="L_eks_snap_0" transform="translate(-59.015625, -12)"><foreignObject width="118.03125" height="24"><div xmlns="http://www.w3.org/1999/xhtml" class="labelBkg" style="display: table-cell; white-space: nowrap; line-height: 1.5; max-width: 200px; text-align: center;"><span class="edgeLabel"><p>signalsctl export</p></span></div></foreignObject></g></g></g><g class="nodes"><g class="node default prod" id="my-svg-flowchart-eks-1" data-look="classic" transform="translate(271.2890625, 108.5)"><rect class="basic label-container" style="fill:#0e2f44 !important;stroke:#0e2f44 !important" x="-130" y="-63" width="260" height="126"/><g class="label" style="color:#ffffff !important" transform="translate(-100, -48)"><rect/><foreignObject width="200" height="96"><div style="color: rgb(255, 255, 255) !important; display: table; white-space: break-spaces; line-height: 1.5; max-width: 200px; text-align: center; width: 200px;" xmlns="http://www.w3.org/1999/xhtml"><span style="color:#ffffff !important" class="nodeLabel"><p>Elevarq Signals<br />Amazon EKS · one non-root pod<br />read-only by design</p></span></div></foreignObject></g></g><g class="node default store" id="my-svg-flowchart-rds-2" data-look="classic" transform="translate(150.5, 371.47179412841797)"><path d="M0,14.314526900678526 a83.7265625,14.314526900678526 0,0,0 167.453125,0 a83.7265625,14.314526900678526 0,0,0 -167.453125,0 l0,77.31452690067853 a83.7265625,14.314526900678526 0,0,0 167.453125,0 l0,-77.31452690067853" class="basic label-container outer-path" style="fill:#e8f0fe !important;stroke:#5dade2 !important" transform="translate(-83.7265625, -52.97179035101779)"/><g class="label" style="color:#0e2f44 !important" transform="translate(-76.2265625, -14)"><rect/><foreignObject width="152.453125" height="48"><div style="color: rgb(14, 47, 68) !important; display: table-cell; white-space: nowrap; line-height: 1.5; max-width: 200px; text-align: center;" xmlns="http://www.w3.org/1999/xhtml"><span style="color:#0e2f44 !important" class="nodeLabel"><p>Amazon RDS / Aurora<br />PostgreSQL</p></span></div></foreignObject></g></g><g class="node default store" id="my-svg-flowchart-snap-3" data-look="classic" transform="translate(392.078125, 371.47179412841797)"><rect class="basic label-container" style="fill:#e8f0fe !important;stroke:#5dade2 !important" x="-107.8515625" y="-39" width="215.703125" height="78"/><g class="label" style="color:#0e2f44 !important" transform="translate(-77.8515625, -24)"><rect/><foreignObject width="155.703125" height="48"><div style="color: rgb(14, 47, 68) !important; display: table-cell; white-space: nowrap; line-height: 1.5; max-width: 200px; text-align: center;" xmlns="http://www.w3.org/1999/xhtml"><span style="color:#0e2f44 !important" class="nodeLabel"><p>Diagnostic snapshot<br />(stays in your cluster)</p></span></div></foreignObject></g></g></g></g><g class="node default" id="my-svg-flowchart-op-0" data-look="classic" transform="translate(94.67748260498047, 234.97178649902344)"><g class="basic label-container outer-path"><path d="M-67.1875 -19.5 C-24.825913527639756 -19.5, 17.53567294472049 -19.5, 67.1875 -19.5 C67.1875 -19.5, 67.1875 -19.5, 67.1875 -19.5 C67.67474885965505 -19.484374877443233, 68.1619977193101 -19.468749754886467, 68.4368692896239 -19.45993515863156 C68.92869048107983 -19.412489759793328, 69.42051167253575 -19.365044360955096, 69.68110465284786 -19.3399052695533 C70.0628657114568 -19.278185102198634, 70.44462677006572 -19.21646493484397, 70.91509325967675 -19.140403561325776 C71.39741330313166 -19.03031715883962, 71.87973334658656 -18.92023075635346, 72.13376438623538 -18.862249829261074 C72.48640232150487 -18.757588741107387, 72.83904025677435 -18.6529276529537, 73.3321102514606 -18.50658706670804 C73.74276357834489 -18.35546284637688, 74.15341690522918 -18.204338626045722, 74.5052065951478 -18.074876768247425 C74.81680312930159 -17.936942225760315, 75.12839966345538 -17.799007683273203, 75.64823291279238 -17.568892924097174 C75.99594117986149 -17.387493743884995, 76.3436494469306 -17.206094563672817, 76.75649226407678 -16.990714730406097 C77.10116359055233 -16.78177294678307, 77.4458349170279 -16.572831163160046, 77.8254305736057 -16.342718045390892 C78.06034825850237 -16.178849637829654, 78.29526594339903 -16.01498123026842, 78.85065534457871 -15.627565626425154 C79.0847993613432 -15.440842003889438, 79.31894337810769 -15.254118381353724, 79.82795370850187 -14.848196188198123 C80.08402986522802 -14.61563459806326, 80.34010602195417 -14.383073007928395, 80.75330973676799 -14.007812326905688 C81.07293832888651 -13.67776956354787, 81.39256692100503 -13.347726800190053, 81.62292094296865 -13.10986736009568 C81.83407828007424 -12.861829936738602, 82.04523561717981 -12.613792513381524, 82.43321390812658 -12.158051136245305 C82.69570608089235 -11.806335538268062, 82.95819825365811 -11.454619940290817, 83.18085896464063 -11.156274872382312 C83.4314080866537 -10.771364139110622, 83.68195720866679 -10.386453405838932, 83.86278387860425 -10.108655082055241 C84.07861508563441 -9.725424918693566, 84.29444629266459 -9.342194755331889, 84.4761864742735 -9.019496659696287 C84.59912054640891 -8.764221428539338, 84.72205461854432 -8.508946197382388, 85.01854614880834 -7.893275190886684 C85.13755986960442 -7.5993089995466105, 85.2565735904005 -7.305342808206538, 85.48763422997033 -6.734618561215508 C85.62209065272485 -6.329657238600592, 85.75654707547938 -5.924695915985676, 85.88152313421489 -5.548287939305138 C85.9849270776784 -5.153963887326163, 86.08833102114191 -4.759639835347188, 86.19859428754556 -4.339158212148133 C86.25647680520728 -4.041943717429647, 86.314359322869 -3.744729222711161, 86.43754477658177 -3.1121979531509023 C86.49386053148835 -2.675424078899137, 86.55017628639493 -2.2386502046473717, 86.59739270250937 -1.872449005199798 C86.62883329897925 -1.3827363367887748, 86.66027389544912 -0.8930236683777516, 86.67748121591342 -0.6250057626472757 C86.67748121591342 -0.18612846584016357, 86.67748121591342 0.25274883096694856, 86.67748121591342 0.625005762647271 C86.65560804351084 0.9656980785244409, 86.63373487110826 1.3063903944016106, 86.59739270250937 1.8724490051997846 C86.54942793513177 2.2444542692657823, 86.50146316775417 2.6164595333317804, 86.43754477658177 3.1121979531508885 C86.38155458784998 3.399695738758067, 86.32556439911819 3.6871935243652456, 86.19859428754556 4.339158212148129 C86.1162217244906 4.653280495571339, 86.03384916143565 4.967402778994549, 85.88152313421489 5.548287939305125 C85.79821184958921 5.799208254747088, 85.71490056496353 6.050128570189051, 85.48763422997033 6.734618561215495 C85.38556402360744 6.986733944325005, 85.28349381724456 7.238849327434515, 85.01854614880834 7.893275190886679 C84.89872544474254 8.142085446631688, 84.77890474067672 8.390895702376698, 84.4761864742735 9.019496659696284 C84.27302480789794 9.3802307706956, 84.06986314152238 9.740964881694918, 83.86278387860425 10.108655082055236 C83.67015414108405 10.404586087213428, 83.47752440356386 10.700517092371618, 83.18085896464065 11.156274872382301 C82.91456127950241 11.513089510249358, 82.64826359436415 11.869904148116415, 82.43321390812659 12.158051136245302 C82.2359327713541 12.389788785112948, 82.03865163458163 12.621526433980595, 81.62292094296866 13.10986736009567 C81.32771609528614 13.414690602096615, 81.03251124760361 13.719513844097559, 80.75330973676799 14.007812326905684 C80.39976426547656 14.328892969631994, 80.04621879418512 14.649973612358306, 79.8279537085019 14.848196188198111 C79.62420742344858 15.010678428611781, 79.42046113839525 15.17316066902545, 78.85065534457871 15.627565626425152 C78.59579588072411 15.805344555721742, 78.34093641686952 15.983123485018332, 77.8254305736057 16.34271804539089 C77.40210810168784 16.59933861558647, 76.97878562976999 16.85595918578205, 76.75649226407678 16.990714730406093 C76.34904349221605 17.20328049370244, 75.94159472035533 17.415846256998787, 75.64823291279238 17.56889292409717 C75.40425830481412 17.676893245799537, 75.16028369683588 17.784893567501904, 74.5052065951478 18.07487676824742 C74.05096021761656 18.242043634186402, 73.59671384008533 18.40921050012538, 73.33211025146062 18.506587066708033 C73.00068290676911 18.60495296291484, 72.66925556207761 18.703318859121644, 72.13376438623541 18.86224982926107 C71.87736115204763 18.920772194276964, 71.62095791785983 18.979294559292857, 70.91509325967677 19.140403561325773 C70.56160194202207 19.197553296198073, 70.20811062436736 19.254703031070378, 69.68110465284788 19.3399052695533 C69.2133855761478 19.385025566368068, 68.74566649944771 19.430145863182837, 68.4368692896239 19.45993515863156 C68.0529316069577 19.4722472928253, 67.6689939242915 19.48455942701904, 67.1875 19.5 C67.1875 19.5, 67.1875 19.5, 67.1875 19.5 C28.1747559675389 19.5, -10.8379880649222 19.5, -67.1875 19.5 C-67.6369699780546 19.48558637264403, -68.08643995610919 19.471172745288058, -68.4368692896239 19.45993515863156 C-68.87635396165521 19.417538600878345, -69.31583863368654 19.375142043125134, -69.68110465284786 19.3399052695533 C-70.07987030350824 19.275435931628333, -70.47863595416864 19.21096659370337, -70.91509325967675 19.140403561325773 C-71.16691189727409 19.082927600564364, -71.41873053487143 19.025451639802952, -72.13376438623538 18.862249829261074 C-72.58181503471137 18.72927074865925, -73.02986568318734 18.59629166805743, -73.33211025146059 18.506587066708043 C-73.7229386204619 18.36275861413772, -74.11376698946322 18.2189301615674, -74.5052065951478 18.074876768247425 C-74.92184206142299 17.890444606379383, -75.3384775276982 17.706012444511337, -75.64823291279238 17.568892924097174 C-75.87202620481942 17.452140106993113, -76.09581949684646 17.335387289889056, -76.75649226407678 16.990714730406097 C-77.06051555693891 16.80641402363389, -77.36453884980104 16.622113316861686, -77.82543057360569 16.3427180453909 C-78.23419338420874 16.057582803771094, -78.64295619481177 15.772447562151289, -78.85065534457871 15.627565626425156 C-79.11000990773127 15.420737264025766, -79.36936447088384 15.213908901626375, -79.82795370850187 14.848196188198125 C-80.19495848895998 14.514892157000446, -80.56196326941809 14.181588125802767, -80.75330973676797 14.007812326905697 C-81.10055942720464 13.649248511800037, -81.44780911764131 13.290684696694377, -81.62292094296865 13.109867360095677 C-81.82616805140152 12.871121741442332, -82.02941515983439 12.632376122788989, -82.43321390812658 12.158051136245307 C-82.69983045171183 11.800809257107861, -82.96644699529709 11.443567377970416, -83.18085896464063 11.156274872382316 C-83.43611928821214 10.764126468382125, -83.69137961178365 10.371978064381937, -83.86278387860425 10.108655082055249 C-84.03888565189956 9.795968551331216, -84.21498742519486 9.483282020607184, -84.4761864742735 9.019496659696289 C-84.64325080746647 8.672583997216988, -84.81031514065945 8.325671334737686, -85.01854614880834 7.893275190886686 C-85.17448210898145 7.508110354442398, -85.33041806915458 7.122945517998111, -85.48763422997033 6.73461856121551 C-85.61378278107732 6.354679224323348, -85.73993133218433 5.974739887431186, -85.88152313421489 5.5482879393051325 C-85.96480550801117 5.2306961532107605, -86.04808788180746 4.9131043671163885, -86.19859428754556 4.339158212148136 C-86.2711251526332 3.9667275493268677, -86.34365601772083 3.5942968865055995, -86.43754477658177 3.112197953150904 C-86.48634730630143 2.733695169794859, -86.53514983602106 2.355192386438814, -86.59739270250937 1.872449005199809 C-86.61342607657551 1.6227162622131681, -86.62945945064163 1.3729835192265272, -86.67748121591342 0.6250057626472781 C-86.67748121591342 0.3264018322520211, -86.67748121591342 0.027797901856764007, -86.67748121591342 -0.6250057626472687 C-86.64874321437566 -1.0726233334951252, -86.62000521283791 -1.5202409043429816, -86.59739270250937 -1.8724490051997822 C-86.54092449967918 -2.310405235442855, -86.48445629684898 -2.748361465685927, -86.43754477658177 -3.112197953150895 C-86.38778830913964 -3.3676868974331575, -86.3380318416975 -3.62317584171542, -86.19859428754556 -4.339158212148126 C-86.13020052285873 -4.599973278944117, -86.06180675817191 -4.860788345740108, -85.88152313421489 -5.548287939305123 C-85.79698341754573 -5.802908096337973, -85.71244370087658 -6.057528253370822, -85.48763422997033 -6.734618561215485 C-85.38493355172349 -6.988291222067708, -85.28223287347666 -7.24196388291993, -85.01854614880834 -7.893275190886676 C-84.89075243734715 -8.158641567083226, -84.76295872588597 -8.424007943279776, -84.4761864742735 -9.019496659696282 C-84.29683255079114 -9.337957712393354, -84.11747862730876 -9.656418765090429, -83.86278387860425 -10.108655082055243 C-83.59841998152365 -10.514789019617167, -83.33405608444306 -10.92092295717909, -83.18085896464063 -11.156274872382308 C-83.00931805564473 -11.386124062738526, -82.83777714664882 -11.615973253094744, -82.43321390812659 -12.158051136245302 C-82.22224629159571 -12.405865703019922, -82.01127867506483 -12.653680269794542, -81.62292094296866 -13.10986736009567 C-81.34111953592897 -13.400850449189942, -81.05931812888929 -13.691833538284214, -80.75330973676799 -14.007812326905677 C-80.46757827141924 -14.267306083695113, -80.18184680607051 -14.526799840484548, -79.8279537085019 -14.848196188198107 C-79.46890820403632 -15.134525423407258, -79.10986269957075 -15.420854658616408, -78.85065534457871 -15.627565626425149 C-78.6300235230821 -15.781468834103565, -78.4093917015855 -15.935372041781982, -77.82543057360571 -16.342718045390885 C-77.46348568123902 -16.562131166167855, -77.10154078887233 -16.78154428694483, -76.75649226407678 -16.99071473040609 C-76.53205975068731 -17.107801028885493, -76.30762723729785 -17.224887327364893, -75.6482329127924 -17.56889292409717 C-75.39244455033511 -17.682122844464832, -75.13665618787782 -17.79535276483249, -74.50520659514781 -18.07487676824742 C-74.24183573418803 -18.17179967965417, -73.97846487322825 -18.268722591060918, -73.33211025146062 -18.506587066708033 C-72.93905845144334 -18.62324277778216, -72.54600665142608 -18.739898488856284, -72.13376438623541 -18.862249829261067 C-71.77666330663173 -18.943755820378286, -71.41956222702807 -19.0252618114955, -70.91509325967677 -19.140403561325773 C-70.60227372018495 -19.190977798519047, -70.28945418069316 -19.241552035712324, -69.68110465284788 -19.3399052695533 C-69.23647446671569 -19.382798208863438, -68.7918442805835 -19.425691148173573, -68.4368692896239 -19.45993515863156 C-68.18347455080844 -19.468061034702433, -67.930079811993 -19.476186910773304, -67.1875 -19.5 C-67.1875 -19.5, -67.1875 -19.5, -67.1875 -19.5" stroke="none" stroke-width="0" fill="#ECECFF" style=""/><path d="M-67.1875 -19.5 C-27.592910487560047 -19.5, 12.001679024879905 -19.5, 67.1875 -19.5 M-67.1875 -19.5 C-16.087187073143 -19.5, 35.013125853714 -19.5, 67.1875 -19.5 M67.1875 -19.5 C67.1875 -19.5, 67.1875 -19.5, 67.1875 -19.5 M67.1875 -19.5 C67.1875 -19.5, 67.1875 -19.5, 67.1875 -19.5 M67.1875 -19.5 C67.61441628222812 -19.486309625771078, 68.04133256445625 -19.472619251542156, 68.4368692896239 -19.45993515863156 M67.1875 -19.5 C67.67688799295908 -19.484306279601743, 68.16627598591816 -19.46861255920349, 68.4368692896239 -19.45993515863156 M68.4368692896239 -19.45993515863156 C68.86816130467635 -19.418328936643988, 69.2994533197288 -19.376722714656413, 69.68110465284786 -19.3399052695533 M68.4368692896239 -19.45993515863156 C68.87471259279609 -19.41769694175815, 69.31255589596829 -19.375458724884744, 69.68110465284786 -19.3399052695533 M69.68110465284786 -19.3399052695533 C69.98810006559012 -19.290272632006115, 70.29509547833237 -19.24063999445893, 70.91509325967675 -19.140403561325776 M69.68110465284786 -19.3399052695533 C70.15370622726996 -19.263498712080683, 70.62630780169205 -19.187092154608067, 70.91509325967675 -19.140403561325776 M70.91509325967675 -19.140403561325776 C71.27645691046376 -19.057924666151838, 71.63782056125078 -18.975445770977903, 72.13376438623538 -18.862249829261074 M70.91509325967675 -19.140403561325776 C71.3987147871104 -19.030020103614447, 71.88233631454408 -18.919636645903115, 72.13376438623538 -18.862249829261074 M72.13376438623538 -18.862249829261074 C72.39683657299734 -18.784171385124214, 72.6599087597593 -18.706092940987354, 73.3321102514606 -18.50658706670804 M72.13376438623538 -18.862249829261074 C72.46158950990971 -18.76495305334372, 72.78941463358406 -18.667656277426367, 73.3321102514606 -18.50658706670804 M73.3321102514606 -18.50658706670804 C73.67670520316929 -18.379772939078432, 74.02130015487796 -18.25295881144882, 74.5052065951478 -18.074876768247425 M73.3321102514606 -18.50658706670804 C73.6232552253706 -18.399443024994525, 73.91440019928059 -18.29229898328101, 74.5052065951478 -18.074876768247425 M74.5052065951478 -18.074876768247425 C74.79044663637661 -17.94860946334062, 75.07568667760543 -17.822342158433813, 75.64823291279238 -17.568892924097174 M74.5052065951478 -18.074876768247425 C74.79415272103567 -17.946968889599148, 75.08309884692355 -17.819061010950872, 75.64823291279238 -17.568892924097174 M75.64823291279238 -17.568892924097174 C75.92672553619899 -17.423603500848987, 76.2052181596056 -17.2783140776008, 76.75649226407678 -16.990714730406097 M75.64823291279238 -17.568892924097174 C76.04443847066467 -17.36219273833697, 76.44064402853698 -17.155492552576764, 76.75649226407678 -16.990714730406097 M76.75649226407678 -16.990714730406097 C77.18317971624407 -16.73205428940849, 77.60986716841136 -16.473393848410883, 77.8254305736057 -16.342718045390892 M76.75649226407678 -16.990714730406097 C77.02639999196013 -16.827095079609343, 77.29630771984348 -16.66347542881259, 77.8254305736057 -16.342718045390892 M77.8254305736057 -16.342718045390892 C78.17434306650263 -16.099331794524375, 78.52325555939956 -15.85594554365786, 78.85065534457871 -15.627565626425154 M77.8254305736057 -16.342718045390892 C78.03404413532625 -16.19719825547017, 78.24265769704681 -16.051678465549447, 78.85065534457871 -15.627565626425154 M78.85065534457871 -15.627565626425154 C79.15064418605469 -15.388332508386394, 79.45063302753067 -15.149099390347635, 79.82795370850187 -14.848196188198123 M78.85065534457871 -15.627565626425154 C79.22303997931886 -15.330598789791189, 79.59542461405901 -15.033631953157224, 79.82795370850187 -14.848196188198123 M79.82795370850187 -14.848196188198123 C80.13420210903833 -14.570069493719568, 80.44045050957479 -14.291942799241014, 80.75330973676799 -14.007812326905688 M79.82795370850187 -14.848196188198123 C80.0692773773644 -14.629032417211553, 80.31060104622695 -14.40986864622498, 80.75330973676799 -14.007812326905688 M80.75330973676799 -14.007812326905688 C80.94456390433093 -13.810326696637766, 81.13581807189388 -13.612841066369844, 81.62292094296865 -13.10986736009568 M80.75330973676799 -14.007812326905688 C80.94830480648386 -13.806463908031093, 81.14329987619973 -13.6051154891565, 81.62292094296865 -13.10986736009568 M81.62292094296865 -13.10986736009568 C81.82355540594212 -12.874190703462693, 82.02418986891557 -12.638514046829705, 82.43321390812658 -12.158051136245305 M81.62292094296865 -13.10986736009568 C81.93656548261039 -12.741442636952607, 82.25021002225212 -12.373017913809534, 82.43321390812658 -12.158051136245305 M82.43321390812658 -12.158051136245305 C82.58981460112793 -11.948220474240118, 82.74641529412928 -11.738389812234931, 83.18085896464063 -11.156274872382312 M82.43321390812658 -12.158051136245305 C82.64948167025948 -11.86827203738566, 82.86574943239239 -11.578492938526017, 83.18085896464063 -11.156274872382312 M83.18085896464063 -11.156274872382312 C83.42899276555923 -10.775074720916274, 83.67712656647781 -10.393874569450238, 83.86278387860425 -10.108655082055241 M83.18085896464063 -11.156274872382312 C83.45246767549604 -10.739010955357386, 83.72407638635144 -10.321747038332461, 83.86278387860425 -10.108655082055241 M83.86278387860425 -10.108655082055241 C84.03128896570658 -9.809457236914728, 84.19979405280893 -9.510259391774213, 84.4761864742735 -9.019496659696287 M83.86278387860425 -10.108655082055241 C84.08876283264905 -9.707406566298268, 84.31474178669386 -9.306158050541292, 84.4761864742735 -9.019496659696287 M84.4761864742735 -9.019496659696287 C84.64315819831843 -8.672776302094409, 84.81012992236337 -8.326055944492529, 85.01854614880834 -7.893275190886684 M84.4761864742735 -9.019496659696287 C84.59671842918713 -8.769209476347426, 84.71725038410078 -8.518922292998564, 85.01854614880834 -7.893275190886684 M85.01854614880834 -7.893275190886684 C85.13131797402896 -7.6147266022968445, 85.24408979924958 -7.336178013707005, 85.48763422997033 -6.734618561215508 M85.01854614880834 -7.893275190886684 C85.16411569375654 -7.533715600468926, 85.30968523870476 -7.174156010051168, 85.48763422997033 -6.734618561215508 M85.48763422997033 -6.734618561215508 C85.61851327847788 -6.34043171985529, 85.74939232698543 -5.946244878495071, 85.88152313421489 -5.548287939305138 M85.48763422997033 -6.734618561215508 C85.61846739453505 -6.340569914980488, 85.74930055909977 -5.946521268745469, 85.88152313421489 -5.548287939305138 M85.88152313421489 -5.548287939305138 C85.97493325485965 -5.1920746650842835, 86.06834337550441 -4.835861390863429, 86.19859428754556 -4.339158212148133 M85.88152313421489 -5.548287939305138 C85.97461376664195 -5.193293012125434, 86.06770439906902 -4.83829808494573, 86.19859428754556 -4.339158212148133 M86.19859428754556 -4.339158212148133 C86.26552028878143 -3.9955073406173325, 86.33244629001729 -3.651856469086532, 86.43754477658177 -3.1121979531509023 M86.19859428754556 -4.339158212148133 C86.27689096941845 -3.9371212987404203, 86.35518765129133 -3.5350843853327074, 86.43754477658177 -3.1121979531509023 M86.43754477658177 -3.1121979531509023 C86.4707000390999 -2.8550522843074697, 86.50385530161802 -2.597906615464037, 86.59739270250937 -1.872449005199798 M86.43754477658177 -3.1121979531509023 C86.49046788717406 -2.701736758247418, 86.54339099776634 -2.2912755633439335, 86.59739270250937 -1.872449005199798 M86.59739270250937 -1.872449005199798 C86.6143943564171 -1.60763452209893, 86.63139601032482 -1.3428200389980622, 86.67748121591342 -0.6250057626472757 M86.59739270250937 -1.872449005199798 C86.61975312687649 -1.524167346672273, 86.6421135512436 -1.1758856881447477, 86.67748121591342 -0.6250057626472757 M86.67748121591342 -0.6250057626472757 C86.67748121591342 -0.14929267551941222, 86.67748121591342 0.32642041160845126, 86.67748121591342 0.625005762647271 M86.67748121591342 -0.6250057626472757 C86.67748121591342 -0.31451867233419495, 86.67748121591342 -0.0040315820211141995, 86.67748121591342 0.625005762647271 M86.67748121591342 0.625005762647271 C86.65986672463089 0.8993656825340958, 86.64225223334836 1.1737256024209204, 86.59739270250937 1.8724490051997846 M86.67748121591342 0.625005762647271 C86.65743411332188 0.9372555672403258, 86.63738701073035 1.2495053718333806, 86.59739270250937 1.8724490051997846 M86.59739270250937 1.8724490051997846 C86.56125355618154 2.1527370876368086, 86.5251144098537 2.433025170073833, 86.43754477658177 3.1121979531508885 M86.59739270250937 1.8724490051997846 C86.55059211642116 2.2354251090788697, 86.50379153033295 2.5984012129579543, 86.43754477658177 3.1121979531508885 M86.43754477658177 3.1121979531508885 C86.37247060072806 3.446340092727767, 86.30739642487436 3.7804822323046454, 86.19859428754556 4.339158212148129 M86.43754477658177 3.1121979531508885 C86.36780552869291 3.4702942516649204, 86.29806628080406 3.828390550178953, 86.19859428754556 4.339158212148129 M86.19859428754556 4.339158212148129 C86.08509629049773 4.771975265234588, 85.9715982934499 5.204792318321047, 85.88152313421489 5.548287939305125 M86.19859428754556 4.339158212148129 C86.07886843459134 4.795724778975455, 85.95914258163714 5.252291345802782, 85.88152313421489 5.548287939305125 M85.88152313421489 5.548287939305125 C85.779363589079 5.855976212341361, 85.6772040439431 6.163664485377597, 85.48763422997033 6.734618561215495 M85.88152313421489 5.548287939305125 C85.7834064155597 5.843799863118395, 85.68528969690452 6.139311786931666, 85.48763422997033 6.734618561215495 M85.48763422997033 6.734618561215495 C85.33041407191632 7.122955391253836, 85.17319391386233 7.511292221292177, 85.01854614880834 7.893275190886679 M85.48763422997033 6.734618561215495 C85.36013670378823 7.049539915882241, 85.23263917760615 7.364461270548988, 85.01854614880834 7.893275190886679 M85.01854614880834 7.893275190886679 C84.87791578210965 8.185297156344307, 84.73728541541098 8.477319121801933, 84.4761864742735 9.019496659696284 M85.01854614880834 7.893275190886679 C84.8854995814438 8.169549234759666, 84.75245301407925 8.445823278632654, 84.4761864742735 9.019496659696284 M84.4761864742735 9.019496659696284 C84.35283635348752 9.23851728970597, 84.22948623270152 9.457537919715655, 83.86278387860425 10.108655082055236 M84.4761864742735 9.019496659696284 C84.26684029821408 9.391211993888822, 84.05749412215464 9.762927328081362, 83.86278387860425 10.108655082055236 M83.86278387860425 10.108655082055236 C83.65054291622269 10.434714194951715, 83.43830195384113 10.760773307848192, 83.18085896464065 11.156274872382301 M83.86278387860425 10.108655082055236 C83.62485447480462 10.474178539282244, 83.386925071005 10.839701996509254, 83.18085896464065 11.156274872382301 M83.18085896464065 11.156274872382301 C82.88520796607182 11.55242027610447, 82.58955696750299 11.94856567982664, 82.43321390812659 12.158051136245302 M83.18085896464065 11.156274872382301 C83.016778124501 11.376128250097372, 82.85269728436137 11.595981627812442, 82.43321390812659 12.158051136245302 M82.43321390812659 12.158051136245302 C82.23548396984818 12.390315972899348, 82.03775403156976 12.622580809553396, 81.62292094296866 13.10986736009567 M82.43321390812659 12.158051136245302 C82.26154436729114 12.359703947184215, 82.0898748264557 12.561356758123129, 81.62292094296866 13.10986736009567 M81.62292094296866 13.10986736009567 C81.34322426315352 13.398677145529286, 81.06352758333837 13.687486930962901, 80.75330973676799 14.007812326905684 M81.62292094296866 13.10986736009567 C81.402487695832 13.337482785670451, 81.18205444869531 13.56509821124523, 80.75330973676799 14.007812326905684 M80.75330973676799 14.007812326905684 C80.38456915011594 14.342692771361795, 80.01582856346387 14.677573215817905, 79.8279537085019 14.848196188198111 M80.75330973676799 14.007812326905684 C80.39339261651038 14.33467953263848, 80.03347549625278 14.661546738371277, 79.8279537085019 14.848196188198111 M79.8279537085019 14.848196188198111 C79.53299567952736 15.083417367142502, 79.23803765055284 15.318638546086891, 78.85065534457871 15.627565626425152 M79.8279537085019 14.848196188198111 C79.48756841379833 15.119644402691092, 79.14718311909478 15.391092617184073, 78.85065534457871 15.627565626425152 M78.85065534457871 15.627565626425152 C78.58895605084547 15.81011572495363, 78.32725675711221 15.992665823482108, 77.8254305736057 16.34271804539089 M78.85065534457871 15.627565626425152 C78.5278407186371 15.852747135062094, 78.20502609269548 16.077928643699035, 77.8254305736057 16.34271804539089 M77.8254305736057 16.34271804539089 C77.45144804042953 16.5694284547676, 77.07746550725335 16.796138864144307, 76.75649226407678 16.990714730406093 M77.8254305736057 16.34271804539089 C77.49378055076934 16.54376623822616, 77.16213052793299 16.74481443106143, 76.75649226407678 16.990714730406093 M76.75649226407678 16.990714730406093 C76.35097020645289 17.202275328119207, 75.94544814882897 17.413835925832323, 75.64823291279238 17.56889292409717 M76.75649226407678 16.990714730406093 C76.44570824964197 17.152850551670074, 76.13492423520715 17.314986372934058, 75.64823291279238 17.56889292409717 M75.64823291279238 17.56889292409717 C75.2998474414608 17.723112837767843, 74.9514619701292 17.877332751438516, 74.5052065951478 18.07487676824742 M75.64823291279238 17.56889292409717 C75.27287899334287 17.735050969759055, 74.89752507389336 17.90120901542094, 74.5052065951478 18.07487676824742 M74.5052065951478 18.07487676824742 C74.09596127908489 18.2254828275808, 73.68671596302198 18.376088886914186, 73.33211025146062 18.506587066708033 M74.5052065951478 18.07487676824742 C74.15767833118375 18.202770381902248, 73.8101500672197 18.330663995557078, 73.33211025146062 18.506587066708033 M73.33211025146062 18.506587066708033 C72.97769784276848 18.611774809259163, 72.62328543407634 18.716962551810298, 72.13376438623541 18.86224982926107 M73.33211025146062 18.506587066708033 C73.08184452451472 18.58086462079397, 72.83157879756881 18.65514217487991, 72.13376438623541 18.86224982926107 M72.13376438623541 18.86224982926107 C71.65597558517739 18.971302005239256, 71.17818678411938 19.080354181217444, 70.91509325967677 19.140403561325773 M72.13376438623541 18.86224982926107 C71.73074532866576 18.95423629920621, 71.32772627109611 19.04622276915135, 70.91509325967677 19.140403561325773 M70.91509325967677 19.140403561325773 C70.42866674121653 19.219045228536434, 69.94224022275631 19.297686895747095, 69.68110465284788 19.3399052695533 M70.91509325967677 19.140403561325773 C70.45557437002964 19.214695011781707, 69.99605548038252 19.288986462237645, 69.68110465284788 19.3399052695533 M69.68110465284788 19.3399052695533 C69.39182294885197 19.367811927625635, 69.10254124485606 19.39571858569797, 68.4368692896239 19.45993515863156 M69.68110465284788 19.3399052695533 C69.33323277689955 19.37346405104889, 68.98536090095122 19.407022832544484, 68.4368692896239 19.45993515863156 M68.4368692896239 19.45993515863156 C68.00313154093395 19.473844284012735, 67.56939379224401 19.487753409393907, 67.1875 19.5 M68.4368692896239 19.45993515863156 C68.13423133022086 19.46964016894056, 67.8315933708178 19.479345179249567, 67.1875 19.5 M67.1875 19.5 C67.1875 19.5, 67.1875 19.5, 67.1875 19.5 M67.1875 19.5 C67.1875 19.5, 67.1875 19.5, 67.1875 19.5 M67.1875 19.5 C33.66832527118555 19.5, 0.14915054237110326 19.5, -67.1875 19.5 M67.1875 19.5 C28.20595365876487 19.5, -10.775592682470261 19.5, -67.1875 19.5 M-67.1875 19.5 C-67.50493863754991 19.4898203607506, -67.82237727509983 19.479640721501198, -68.4368692896239 19.45993515863156 M-67.1875 19.5 C-67.59338177858622 19.486984161361697, -67.99926355717244 19.47396832272339, -68.4368692896239 19.45993515863156 M-68.4368692896239 19.45993515863156 C-68.82040204199156 19.42293621527627, -69.20393479435921 19.385937271920984, -69.68110465284786 19.3399052695533 M-68.4368692896239 19.45993515863156 C-68.7977577967568 19.42512067838038, -69.15864630388968 19.3903061981292, -69.68110465284786 19.3399052695533 M-69.68110465284786 19.3399052695533 C-70.14066402110953 19.26560727482888, -70.60022338937121 19.19130928010446, -70.91509325967675 19.140403561325773 M-69.68110465284786 19.3399052695533 C-70.14752562101567 19.264497944568557, -70.6139465891835 19.189090619583812, -70.91509325967675 19.140403561325773 M-70.91509325967675 19.140403561325773 C-71.21005609697622 19.073080218524566, -71.50501893427567 19.005756875723364, -72.13376438623538 18.862249829261074 M-70.91509325967675 19.140403561325773 C-71.33689632819579 19.04412976345856, -71.75869939671483 18.94785596559135, -72.13376438623538 18.862249829261074 M-72.13376438623538 18.862249829261074 C-72.56119700840513 18.73539007064071, -72.98862963057488 18.608530312020353, -73.33211025146059 18.506587066708043 M-72.13376438623538 18.862249829261074 C-72.40381098620512 18.78210141589359, -72.67385758617483 18.701953002526107, -73.33211025146059 18.506587066708043 M-73.33211025146059 18.506587066708043 C-73.72061819861722 18.36361255082631, -74.10912614577384 18.220638034944574, -74.5052065951478 18.074876768247425 M-73.33211025146059 18.506587066708043 C-73.64553045626354 18.391245534115942, -73.95895066106651 18.275904001523838, -74.5052065951478 18.074876768247425 M-74.5052065951478 18.074876768247425 C-74.76808383428238 17.958508812458785, -75.03096107341695 17.84214085667014, -75.64823291279238 17.568892924097174 M-74.5052065951478 18.074876768247425 C-74.87533278006521 17.911032885587666, -75.2454589649826 17.747189002927907, -75.64823291279238 17.568892924097174 M-75.64823291279238 17.568892924097174 C-75.92838532480427 17.42273759019676, -76.20853773681614 17.276582256296347, -76.75649226407678 16.990714730406097 M-75.64823291279238 17.568892924097174 C-75.92579836439931 17.424087205782993, -76.20336381600625 17.27928148746881, -76.75649226407678 16.990714730406097 M-76.75649226407678 16.990714730406097 C-77.12538941949799 16.767087106909447, -77.49428657491919 16.543459483412793, -77.82543057360569 16.3427180453909 M-76.75649226407678 16.990714730406097 C-77.01347890228995 16.834927920100156, -77.27046554050311 16.67914110979422, -77.82543057360569 16.3427180453909 M-77.82543057360569 16.3427180453909 C-78.1259030497791 16.13312145325618, -78.42637552595251 15.923524861121463, -78.85065534457871 15.627565626425156 M-77.82543057360569 16.3427180453909 C-78.03789795027818 16.194510000988668, -78.25036532695066 16.04630195658644, -78.85065534457871 15.627565626425156 M-78.85065534457871 15.627565626425156 C-79.15463232778245 15.385152071487415, -79.4586093109862 15.142738516549674, -79.82795370850187 14.848196188198125 M-78.85065534457871 15.627565626425156 C-79.14151189764745 15.395615265370774, -79.43236845071618 15.163664904316391, -79.82795370850187 14.848196188198125 M-79.82795370850187 14.848196188198125 C-80.04538111597336 14.650734369546473, -80.26280852344485 14.453272550894821, -80.75330973676797 14.007812326905697 M-79.82795370850187 14.848196188198125 C-80.11485131664975 14.587643371372959, -80.40174892479764 14.327090554547793, -80.75330973676797 14.007812326905697 M-80.75330973676797 14.007812326905697 C-81.0062963952613 13.7465828314204, -81.25928305375461 13.4853533359351, -81.62292094296865 13.109867360095677 M-80.75330973676797 14.007812326905697 C-81.03878257275615 13.71303818599219, -81.32425540874432 13.418264045078685, -81.62292094296865 13.109867360095677 M-81.62292094296865 13.109867360095677 C-81.79616705911751 12.906362614083957, -81.96941317526637 12.702857868072234, -82.43321390812658 12.158051136245307 M-81.62292094296865 13.109867360095677 C-81.8187673614785 12.879815012937083, -82.01461377998838 12.64976266577849, -82.43321390812658 12.158051136245307 M-82.43321390812658 12.158051136245307 C-82.68980620936026 11.814240828631712, -82.94639851059394 11.470430521018118, -83.18085896464063 11.156274872382316 M-82.43321390812658 12.158051136245307 C-82.68135318776469 11.825567107483664, -82.9294924674028 11.493083078722021, -83.18085896464063 11.156274872382316 M-83.18085896464063 11.156274872382316 C-83.39544726752213 10.826609614128756, -83.61003557040362 10.496944355875197, -83.86278387860425 10.108655082055249 M-83.18085896464063 11.156274872382316 C-83.4496876947483 10.743281752315271, -83.71851642485596 10.330288632248227, -83.86278387860425 10.108655082055249 M-83.86278387860425 10.108655082055249 C-84.02821493942923 9.814915481849079, -84.19364600025422 9.52117588164291, -84.4761864742735 9.019496659696289 M-83.86278387860425 10.108655082055249 C-84.05487852387004 9.767571587693714, -84.24697316913586 9.426488093332178, -84.4761864742735 9.019496659696289 M-84.4761864742735 9.019496659696289 C-84.64254835690743 8.67404265083288, -84.80891023954136 8.32858864196947, -85.01854614880834 7.893275190886686 M-84.4761864742735 9.019496659696289 C-84.63612644054324 8.68737789757014, -84.79606640681295 8.355259135443992, -85.01854614880834 7.893275190886686 M-85.01854614880834 7.893275190886686 C-85.12282922158501 7.635693984952251, -85.22711229436169 7.378112779017815, -85.48763422997033 6.73461856121551 M-85.01854614880834 7.893275190886686 C-85.12250548012862 7.636493632608644, -85.2264648114489 7.379712074330603, -85.48763422997033 6.73461856121551 M-85.48763422997033 6.73461856121551 C-85.61295696865372 6.357166439767901, -85.73827970733711 5.979714318320291, -85.88152313421489 5.5482879393051325 M-85.48763422997033 6.73461856121551 C-85.60178299214928 6.390820676667897, -85.71593175432824 6.047022792120285, -85.88152313421489 5.5482879393051325 M-85.88152313421489 5.5482879393051325 C-85.9984770043226 5.102292144456512, -86.11543087443029 4.656296349607892, -86.19859428754556 4.339158212148136 M-85.88152313421489 5.5482879393051325 C-85.98731733723358 5.144848791697217, -86.09311154025228 4.741409644089301, -86.19859428754556 4.339158212148136 M-86.19859428754556 4.339158212148136 C-86.25012980604663 4.074534216680856, -86.30166532454768 3.809910221213577, -86.43754477658177 3.112197953150904 M-86.19859428754556 4.339158212148136 C-86.27275112594542 3.958378520018233, -86.34690796434526 3.5775988278883304, -86.43754477658177 3.112197953150904 M-86.43754477658177 3.112197953150904 C-86.47317122211126 2.835886276861645, -86.50879766764074 2.5595746005723856, -86.59739270250937 1.872449005199809 M-86.43754477658177 3.112197953150904 C-86.4844534320273 2.7483836846772185, -86.53136208747281 2.384569416203533, -86.59739270250937 1.872449005199809 M-86.59739270250937 1.872449005199809 C-86.62420282855814 1.454859651245952, -86.65101295460691 1.0372702972920949, -86.67748121591342 0.6250057626472781 M-86.59739270250937 1.872449005199809 C-86.62151130038583 1.4967823750919966, -86.6456298982623 1.1211157449841842, -86.67748121591342 0.6250057626472781 M-86.67748121591342 0.6250057626472781 C-86.67748121591342 0.36669877157675923, -86.67748121591342 0.10839178050624032, -86.67748121591342 -0.6250057626472687 M-86.67748121591342 0.6250057626472781 C-86.67748121591342 0.3104651563099499, -86.67748121591342 -0.004075450027378302, -86.67748121591342 -0.6250057626472687 M-86.67748121591342 -0.6250057626472687 C-86.65302659407521 -1.0059062371928151, -86.628571972237 -1.3868067117383613, -86.59739270250937 -1.8724490051997822 M-86.67748121591342 -0.6250057626472687 C-86.6532386391704 -1.0026034636754944, -86.62899606242738 -1.38020116470372, -86.59739270250937 -1.8724490051997822 M-86.59739270250937 -1.8724490051997822 C-86.53511718893323 -2.3554455908051994, -86.47284167535709 -2.8384421764106165, -86.43754477658177 -3.112197953150895 M-86.59739270250937 -1.8724490051997822 C-86.55060388236804 -2.2353338547183847, -86.50381506222669 -2.5982187042369875, -86.43754477658177 -3.112197953150895 M-86.43754477658177 -3.112197953150895 C-86.37247142092394 -3.4463358811952425, -86.30739806526613 -3.7804738092395893, -86.19859428754556 -4.339158212148126 M-86.43754477658177 -3.112197953150895 C-86.34378295603963 -3.593645085067017, -86.25002113549749 -4.075092216983139, -86.19859428754556 -4.339158212148126 M-86.19859428754556 -4.339158212148126 C-86.12697338319838 -4.612279761120259, -86.05535247885118 -4.885401310092392, -85.88152313421489 -5.548287939305123 M-86.19859428754556 -4.339158212148126 C-86.08646171513715 -4.766768309305717, -85.97432914272873 -5.194378406463309, -85.88152313421489 -5.548287939305123 M-85.88152313421489 -5.548287939305123 C-85.77601745816658 -5.866054225515988, -85.67051178211827 -6.1838205117268545, -85.48763422997033 -6.734618561215485 M-85.88152313421489 -5.548287939305123 C-85.75506899247586 -5.929147666491696, -85.62861485073684 -6.310007393678268, -85.48763422997033 -6.734618561215485 M-85.48763422997033 -6.734618561215485 C-85.30330784597142 -7.189908293400976, -85.11898146197252 -7.645198025586469, -85.01854614880834 -7.893275190886676 M-85.48763422997033 -6.734618561215485 C-85.3747397685232 -7.013470063655834, -85.26184530707606 -7.292321566096183, -85.01854614880834 -7.893275190886676 M-85.01854614880834 -7.893275190886676 C-84.85186567086573 -8.239390769725398, -84.68518519292313 -8.58550634856412, -84.4761864742735 -9.019496659696282 M-85.01854614880834 -7.893275190886676 C-84.86780843571267 -8.2062852774002, -84.71707072261702 -8.519295363913724, -84.4761864742735 -9.019496659696282 M-84.4761864742735 -9.019496659696282 C-84.3218158602482 -9.29359731661794, -84.16744524622288 -9.567697973539598, -83.86278387860425 -10.108655082055243 M-84.4761864742735 -9.019496659696282 C-84.27654228304436 -9.37398513739015, -84.07689809181522 -9.72847361508402, -83.86278387860425 -10.108655082055243 M-83.86278387860425 -10.108655082055243 C-83.6168103438253 -10.486536484618085, -83.37083680904638 -10.864417887180927, -83.18085896464063 -11.156274872382308 M-83.86278387860425 -10.108655082055243 C-83.64682468506336 -10.440426396497308, -83.43086549152248 -10.772197710939373, -83.18085896464063 -11.156274872382308 M-83.18085896464063 -11.156274872382308 C-83.02678725276834 -11.362716930069485, -82.87271554089604 -11.569158987756662, -82.43321390812659 -12.158051136245302 M-83.18085896464063 -11.156274872382308 C-82.91685532590124 -11.510015697066834, -82.65285168716184 -11.863756521751359, -82.43321390812659 -12.158051136245302 M-82.43321390812659 -12.158051136245302 C-82.14365968694875 -12.498178000542717, -81.85410546577093 -12.838304864840131, -81.62292094296866 -13.10986736009567 M-82.43321390812659 -12.158051136245302 C-82.24204991137731 -12.382603244366573, -82.05088591462803 -12.607155352487844, -81.62292094296866 -13.10986736009567 M-81.62292094296866 -13.10986736009567 C-81.3685365834555 -13.372540096637335, -81.11415222394234 -13.635212833179002, -80.75330973676799 -14.007812326905677 M-81.62292094296866 -13.10986736009567 C-81.29628903778806 -13.447141619172783, -80.96965713260745 -13.784415878249895, -80.75330973676799 -14.007812326905677 M-80.75330973676799 -14.007812326905677 C-80.39177110805743 -14.336152143712683, -80.03023247934688 -14.66449196051969, -79.8279537085019 -14.848196188198107 M-80.75330973676799 -14.007812326905677 C-80.39601441708959 -14.332298482721486, -80.03871909741119 -14.656784638537294, -79.8279537085019 -14.848196188198107 M-79.8279537085019 -14.848196188198107 C-79.57800748989233 -15.047521646191019, -79.32806127128276 -15.24684710418393, -78.85065534457871 -15.627565626425149 M-79.8279537085019 -14.848196188198107 C-79.49929549028437 -15.110292371264093, -79.17063727206683 -15.372388554330078, -78.85065534457871 -15.627565626425149 M-78.85065534457871 -15.627565626425149 C-78.4418718990046 -15.912715262107504, -78.03308845343048 -16.19786489778986, -77.82543057360571 -16.342718045390885 M-78.85065534457871 -15.627565626425149 C-78.45653011627203 -15.902490324285742, -78.06240488796534 -16.177415022146334, -77.82543057360571 -16.342718045390885 M-77.82543057360571 -16.342718045390885 C-77.55583045226444 -16.506151223294133, -77.28623033092317 -16.669584401197383, -76.75649226407678 -16.99071473040609 M-77.82543057360571 -16.342718045390885 C-77.44179642338118 -16.575279321741508, -77.05816227315664 -16.80784059809213, -76.75649226407678 -16.99071473040609 M-76.75649226407678 -16.99071473040609 C-76.37213745998831 -17.19123238550805, -75.98778265589982 -17.39175004061001, -75.6482329127924 -17.56889292409717 M-76.75649226407678 -16.99071473040609 C-76.34862367840083 -17.20349951030094, -75.94075509272487 -17.416284290195794, -75.6482329127924 -17.56889292409717 M-75.6482329127924 -17.56889292409717 C-75.27822747028799 -17.73268335767239, -74.90822202778358 -17.896473791247608, -74.50520659514781 -18.07487676824742 M-75.6482329127924 -17.56889292409717 C-75.4045012852015 -17.676785685589806, -75.16076965761063 -17.78467844708244, -74.50520659514781 -18.07487676824742 M-74.50520659514781 -18.07487676824742 C-74.0787213415938 -18.23182728394176, -73.6522360880398 -18.388777799636102, -73.33211025146062 -18.506587066708033 M-74.50520659514781 -18.07487676824742 C-74.25226134153543 -18.167962959777068, -73.99931608792305 -18.261049151306718, -73.33211025146062 -18.506587066708033 M-73.33211025146062 -18.506587066708033 C-73.08377547401346 -18.580291525118504, -72.8354406965663 -18.653995983528972, -72.13376438623541 -18.862249829261067 M-73.33211025146062 -18.506587066708033 C-72.93364748090134 -18.62484872543626, -72.53518471034208 -18.74311038416449, -72.13376438623541 -18.862249829261067 M-72.13376438623541 -18.862249829261067 C-71.851556743297 -18.92666188218479, -71.56934910035858 -18.991073935108506, -70.91509325967677 -19.140403561325773 M-72.13376438623541 -18.862249829261067 C-71.85310141492184 -18.92630932096634, -71.57243844360828 -18.990368812671612, -70.91509325967677 -19.140403561325773 M-70.91509325967677 -19.140403561325773 C-70.56817006308226 -19.196491413321603, -70.22124686648776 -19.25257926531743, -69.68110465284788 -19.3399052695533 M-70.91509325967677 -19.140403561325773 C-70.44110209765259 -19.217034776545482, -69.96711093562841 -19.29366599176519, -69.68110465284788 -19.3399052695533 M-69.68110465284788 -19.3399052695533 C-69.3279040622865 -19.373978105738896, -68.97470347172514 -19.408050941924493, -68.4368692896239 -19.45993515863156 M-69.68110465284788 -19.3399052695533 C-69.2289513250325 -19.38352395729371, -68.77679799721712 -19.427142645034124, -68.4368692896239 -19.45993515863156 M-68.4368692896239 -19.45993515863156 C-68.01438610855404 -19.473483371934844, -67.59190292748417 -19.487031585238128, -67.1875 -19.5 M-68.4368692896239 -19.45993515863156 C-68.01088246160829 -19.473595727072958, -67.58489563359268 -19.48725629551436, -67.1875 -19.5 M-67.1875 -19.5 C-67.1875 -19.5, -67.1875 -19.5, -67.1875 -19.5 M-67.1875 -19.5 C-67.1875 -19.5, -67.1875 -19.5, -67.1875 -19.5" stroke="#9370DB" stroke-width="1.3" fill="none" stroke-dasharray="0 0" style=""/></g><g class="label" style="" transform="translate(-74.3125, -12)"><rect/><foreignObject width="148.625" height="24"><div xmlns="http://www.w3.org/1999/xhtml" style="display: table-cell; white-space: nowrap; line-height: 1.5; max-width: 200px; text-align: center;"><span class="nodeLabel"><p>Operator / signalsctl</p></span></div></foreignObject></g></g></g></g></g><defs><filter id="my-svg-drop-shadow" height="130%" width="130%"><feDropShadow dx="4" dy="4" stdDeviation="0" flood-opacity="0.06" flood-color="#000000"/></filter></defs><defs><filter id="my-svg-drop-shadow-small" height="150%" width="150%"><feDropShadow dx="2" dy="2" stdDeviation="0" flood-opacity="0.06" flood-color="#000000"/></filter></defs></svg>